<?xml version="1.0" standalone="no"?>
<!DOCTYPE svg PUBLIC "-//W3C//DTD SVG 20010904//EN"
 "http://www.w3.org/TR/2001/REC-SVG-20010904/DTD/svg10.dtd">
<svg version="1.0" xmlns="http://www.w3.org/2000/svg"
 width="384.000000pt" height="384.000000pt" viewBox="0 0 384.000000 384.000000"
 preserveAspectRatio="xMidYMid meet">
<metadata>
Created by potrace 1.11, written by Peter Selinger 2001-2013
</metadata>
<g transform="translate(0.000000,384.000000) scale(0.100000,-0.100000)"
fill="#000000" stroke="none">
<path d="M370 3651 c-38 -9 -105 -56 -127 -88 -11 -15 -27 -47 -36 -71 -16
-39 -17 -166 -17 -1568 0 -1502 1 -1526 20 -1564 11 -22 20 -47 20 -56 0 -10
2 -15 5 -12 8 7 65 -47 65 -62 0 -6 -5 -8 -12 -4 -7 5 -8 3 -3 -6 6 -10 11
-10 20 4 11 14 14 14 24 2 7 -8 19 -12 27 -9 16 6 19 -12 4 -22 -6 -3 -10 -11
-10 -18 0 -6 7 -2 15 9 11 17 25 21 70 22 30 0 55 -4 55 -9 0 -5 5 -9 11 -9 5
0 7 5 4 10 -3 6 0 10 9 10 8 0 17 -6 19 -12 4 -10 6 -10 6 0 1 14 31 17 31 2
0 -5 5 -10 11 -10 5 0 7 5 4 10 -3 6 0 10 9 10 8 0 17 -6 19 -12 4 -10 6 -10
6 0 1 6 13 12 29 12 21 0 24 -2 12 -10 -8 -5 -10 -10 -4 -10 6 0 14 3 18 7 11
11 48 14 41 3 -3 -5 -1 -10 4 -10 6 0 11 4 11 8 0 5 14 9 32 10 23 1 28 -2 18
-8 -9 -6 -10 -10 -3 -10 6 0 15 5 18 10 3 6 14 10 23 10 15 0 15 -2 2 -10 -8
-5 -10 -10 -4 -10 6 0 14 3 18 7 11 11 48 14 41 3 -3 -5 -1 -10 4 -10 6 0 11
4 11 8 0 5 14 9 32 10 23 1 28 -2 18 -8 -8 -6 -10 -10 -4 -10 5 0 15 5 22 12
9 9 12 9 12 0 0 -7 5 -12 11 -12 5 0 7 5 4 10 -3 6 0 10 9 10 8 0 17 -6 19
-12 4 -10 6 -10 6 0 1 14 31 17 31 2 0 -5 5 -10 11 -10 5 0 7 5 4 10 -3 6 1
10 9 10 9 0 16 -6 16 -12 0 -10 2 -10 8 -1 4 6 26 12 50 11 24 0 39 -4 36 -10
-3 -5 3 -4 15 4 18 11 23 10 36 -7 9 -12 13 -14 10 -5 -4 11 2 16 20 18 14 1
25 -4 25 -11 0 -9 2 -9 8 0 9 15 144 14 154 -2 5 -6 8 -6 8 3 0 6 5 12 11 12
5 0 7 -6 3 -12 -6 -11 -4 -11 7 0 16 14 49 16 49 2 0 -5 5 -10 11 -10 5 0 7 5
4 10 -3 6 0 10 9 10 8 0 17 -6 19 -12 4 -10 6 -10 6 0 1 6 13 12 29 12 21 0
24 -2 12 -10 -8 -5 -10 -10 -4 -10 6 0 14 3 18 7 11 11 48 14 41 3 -3 -5 -1
-10 4 -10 6 0 11 4 11 8 0 5 14 9 32 10 23 1 28 -2 18 -8 -9 -6 -10 -10 -3
-10 6 0 15 5 18 10 3 6 14 10 23 10 15 0 15 -2 2 -10 -8 -5 -10 -10 -4 -10 6
0 14 3 18 7 11 11 48 14 41 3 -3 -5 -1 -10 4 -10 6 0 11 4 11 8 0 5 14 9 32
10 23 1 28 -2 18 -8 -8 -6 -10 -10 -4 -10 5 0 15 5 22 12 9 9 12 9 12 0 0 -7
5 -12 11 -12 5 0 7 4 4 10 -3 5 0 10 9 10 8 0 17 -6 19 -12 4 -10 6 -10 6 0 1
14 31 17 31 2 0 -5 5 -10 11 -10 5 0 7 5 4 10 -3 6 1 10 9 10 9 0 16 -6 16
-12 0 -10 2 -10 8 -1 4 6 26 12 50 11 24 0 39 -4 36 -10 -3 -5 3 -4 15 4 18
11 23 10 36 -7 9 -12 13 -14 10 -5 -4 11 2 16 20 18 14 1 25 -4 25 -11 0 -9 2
-9 8 0 9 15 144 14 154 -2 5 -6 8 -6 8 3 0 6 5 12 11 12 5 0 7 -6 3 -12 -6
-10 -4 -10 7 -1 16 15 49 17 49 3 0 -5 5 -10 11 -10 5 0 7 5 4 10 -3 6 0 10 9
10 8 0 17 -6 19 -12 4 -10 6 -10 6 0 1 14 31 17 31 2 0 -5 5 -10 11 -10 5 0 7
5 4 10 -3 6 0 10 9 10 8 0 17 -6 19 -12 4 -10 6 -10 6 0 1 14 31 17 31 2 0 -5
5 -10 11 -10 5 0 7 5 4 10 -3 6 1 10 9 10 9 0 16 -6 16 -12 0 -10 2 -10 8 -1
4 6 26 12 50 11 24 0 39 -4 36 -10 -3 -5 3 -4 15 4 18 11 23 10 36 -7 9 -12
13 -14 10 -5 -4 11 2 16 20 18 14 1 25 -4 25 -11 0 -9 2 -9 8 0 9 15 144 14
154 -2 5 -6 8 -6 8 3 0 6 5 12 11 12 5 0 7 -6 3 -13 -6 -9 -4 -9 7 0 16 15 49
17 49 3 0 -5 5 -10 11 -10 5 0 7 5 4 10 -3 6 0 10 9 10 8 0 17 -6 19 -12 4
-10 6 -10 6 0 1 6 13 12 29 12 21 0 24 -2 12 -10 -8 -5 -10 -10 -4 -10 6 0 14
3 18 7 11 11 48 14 41 3 -3 -5 -1 -10 4 -10 6 0 11 4 11 8 0 5 14 9 32 10 23
1 28 -2 18 -8 -8 -6 -12 -10 -7 -10 4 0 16 6 27 12 17 11 22 10 30 -2 5 -8 10
-10 10 -5 0 6 9 11 20 12 11 1 18 -2 15 -7 -3 -5 0 -12 6 -16 8 -4 9 -3 5 4
-8 13 50 46 64 37 6 -3 10 -1 10 6 0 7 3 10 6 6 14 -13 86 74 105 127 19 54
19 93 19 1571 0 1390 -2 1519 -17 1558 -24 61 -60 104 -112 135 l-46 27 -1540
1 c-847 1 -1551 -1 -1565 -5z"/>
<path d="M150 256 c0 -2 8 -10 18 -17 15 -13 16 -12 3 4 -13 16 -21 21 -21 13z"/>
<path d="M3575 249 c-4 -6 -5 -12 -2 -15 2 -3 7 2 10 11 7 17 1 20 -8 4z"/>
<path d="M3570 206 c0 -8 4 -17 9 -20 5 -4 7 3 4 14 -6 23 -13 26 -13 6z"/>
<path d="M225 200 c-5 -8 42 -7 49 1 3 3 -6 5 -20 5 -14 0 -27 -3 -29 -6z"/>
<path d="M307 204 c-4 -4 -7 -12 -7 -18 0 -6 5 -4 10 4 9 13 11 13 21 0 9 -12
10 -12 7 -1 -5 17 -21 25 -31 15z"/>
<path d="M3491 207 c2 -1 14 -11 27 -21 12 -11 22 -16 22 -13 0 10 -31 37 -42
37 -6 0 -9 -1 -7 -3z"/>
<path d="M390 190 c-8 -5 -10 -10 -5 -10 6 0 17 5 25 10 8 5 11 10 5 10 -5 0
-17 -5 -25 -10z"/>
<path d="M1118 193 c7 -3 16 -2 19 1 4 3 -2 6 -13 5 -11 0 -14 -3 -6 -6z"/>
<path d="M1315 189 c-4 -6 -5 -12 -2 -15 2 -3 7 2 10 11 7 17 1 20 -8 4z"/>
<path d="M1344 184 c-18 -14 -18 -14 6 -3 31 14 36 19 24 19 -6 0 -19 -7 -30
-16z"/>
<path d="M1510 191 c0 -6 4 -13 10 -16 6 -3 7 1 4 9 -7 18 -14 21 -14 7z"/>
<path d="M2078 193 c7 -3 16 -2 19 1 4 3 -2 6 -13 5 -11 0 -14 -3 -6 -6z"/>
<path d="M2275 189 c-4 -6 -5 -12 -2 -15 2 -3 7 2 10 11 7 17 1 20 -8 4z"/>
<path d="M2304 184 c-18 -14 -18 -14 6 -3 31 14 36 19 24 19 -6 0 -19 -7 -30
-16z"/>
<path d="M2470 191 c0 -6 4 -13 10 -16 6 -3 7 1 4 9 -7 18 -14 21 -14 7z"/>
<path d="M2718 193 c7 -3 16 -2 19 1 4 3 -2 6 -13 5 -11 0 -14 -3 -6 -6z"/>
<path d="M2915 189 c-4 -6 -5 -12 -2 -15 2 -3 7 2 10 11 7 17 1 20 -8 4z"/>
<path d="M2944 184 c-18 -14 -18 -14 6 -3 31 14 36 19 24 19 -6 0 -19 -7 -30
-16z"/>
<path d="M3110 191 c0 -6 4 -13 10 -16 6 -3 7 1 4 9 -7 18 -14 21 -14 7z"/>
<path d="M3470 190 c8 -5 20 -10 25 -10 6 0 3 5 -5 10 -8 5 -19 10 -25 10 -5
0 -3 -5 5 -10z"/>
<path d="M166 178 c3 -5 10 -6 15 -3 13 9 11 12 -6 12 -8 0 -12 -4 -9 -9z"/>
<path d="M470 180 c0 -6 7 -10 15 -10 8 0 15 2 15 4 0 2 -7 6 -15 10 -8 3 -15
1 -15 -4z"/>
<path d="M694 182 c3 -5 0 -13 -6 -15 -9 -4 -10 -6 -1 -6 17 -1 25 16 12 25
-7 4 -9 3 -5 -4z"/>
<path d="M739 188 c-11 -38 -1 -49 21 -23 11 13 10 14 -5 9 -13 -5 -16 -4 -11
4 4 7 5 12 2 12 -3 0 -6 -1 -7 -2z"/>
<path d="M854 183 c4 -7 2 -13 -4 -13 -6 0 -8 -4 -5 -10 3 -5 10 -10 15 -10
10 0 7 27 -5 37 -4 4 -5 2 -1 -4z"/>
<path d="M1150 180 c0 -5 5 -10 10 -10 6 0 10 5 10 10 0 6 -4 10 -10 10 -5 0
-10 -4 -10 -10z"/>
<path d="M1430 181 c0 -6 4 -13 10 -16 6 -3 7 1 4 9 -7 18 -14 21 -14 7z"/>
<path d="M1654 182 c3 -5 0 -13 -6 -15 -9 -4 -10 -6 -1 -6 17 -1 25 16 12 25
-7 4 -9 3 -5 -4z"/>
<path d="M1699 188 c-11 -38 -1 -49 21 -23 11 13 10 14 -5 9 -13 -5 -16 -4
-11 4 4 7 5 12 2 12 -3 0 -6 -1 -7 -2z"/>
<path d="M1814 183 c4 -7 2 -13 -4 -13 -6 0 -8 -4 -5 -10 3 -5 10 -10 15 -10
10 0 7 27 -5 37 -4 4 -5 2 -1 -4z"/>
<path d="M2110 180 c0 -5 5 -10 10 -10 6 0 10 5 10 10 0 6 -4 10 -10 10 -5 0
-10 -4 -10 -10z"/>
<path d="M2390 181 c0 -6 4 -13 10 -16 6 -3 7 1 4 9 -7 18 -14 21 -14 7z"/>
<path d="M2750 180 c0 -5 5 -10 10 -10 6 0 10 5 10 10 0 6 -4 10 -10 10 -5 0
-10 -4 -10 -10z"/>
<path d="M3030 181 c0 -6 4 -13 10 -16 6 -3 7 1 4 9 -7 18 -14 21 -14 7z"/>
<path d="M3254 182 c3 -5 0 -13 -6 -15 -9 -4 -10 -6 -1 -6 17 -1 25 16 12 25
-7 4 -9 3 -5 -4z"/>
<path d="M3299 188 c-11 -38 -1 -49 21 -23 11 13 10 14 -5 9 -13 -5 -16 -4
-11 4 4 7 5 12 2 12 -3 0 -6 -1 -7 -2z"/>
<path d="M3416 177 c3 -10 9 -15 12 -12 3 3 0 11 -7 18 -10 9 -11 8 -5 -6z"/>
<path d="M516 167 c3 -10 9 -15 12 -12 3 3 0 11 -7 18 -10 9 -11 8 -5 -6z"/>
<path d="M548 173 c6 -2 18 -2 25 0 6 3 1 5 -13 5 -14 0 -19 -2 -12 -5z"/>
<path d="M593 167 c0 -8 6 -14 14 -14 9 0 10 4 2 14 -14 16 -16 16 -16 0z"/>
<path d="M628 173 c6 -2 9 -10 5 -16 -3 -7 -3 -9 2 -5 4 4 15 2 23 -5 13 -11
14 -9 1 11 -8 12 -21 22 -29 21 -10 0 -11 -2 -2 -6z"/>
<path d="M794 165 c3 -23 12 -26 13 -5 1 11 -2 20 -7 20 -4 0 -7 -7 -6 -15z"/>
<path d="M911 171 c-8 -5 -9 -11 -3 -15 5 -3 12 1 16 9 6 17 6 18 -13 6z"/>
<path d="M958 173 c7 -3 16 -2 19 1 4 3 -2 6 -13 5 -11 0 -14 -3 -6 -6z"/>
<path d="M993 165 c0 -8 4 -12 9 -9 5 3 6 10 3 15 -9 13 -12 11 -12 -6z"/>
<path d="M1028 173 c6 -2 18 -2 25 0 6 3 1 5 -13 5 -14 0 -19 -2 -12 -5z"/>
<path d="M1260 169 c0 -5 -4 -8 -9 -4 -5 3 -12 1 -15 -4 -4 -5 2 -8 11 -7 15
3 33 26 19 26 -3 0 -6 -5 -6 -11z"/>
<path d="M1292 160 c0 -14 2 -19 5 -12 2 6 2 18 0 25 -3 6 -5 1 -5 -13z"/>
<path d="M1472 166 c7 -8 15 -12 17 -11 5 6 -10 25 -20 25 -5 0 -4 -6 3 -14z"/>
<path d="M1548 173 c6 -2 10 -8 8 -12 -3 -4 1 -8 9 -8 11 0 12 4 4 14 -6 7
-17 13 -23 12 -7 0 -6 -2 2 -6z"/>
<path d="M1588 173 c6 -2 9 -10 5 -16 -3 -7 -3 -9 2 -5 4 4 15 2 23 -5 13 -11
14 -9 1 11 -8 12 -21 22 -29 21 -10 0 -11 -2 -2 -6z"/>
<path d="M1754 165 c3 -23 12 -26 13 -5 1 11 -2 20 -7 20 -4 0 -7 -7 -6 -15z"/>
<path d="M1871 171 c-8 -5 -9 -11 -3 -15 5 -3 12 1 16 9 6 17 6 18 -13 6z"/>
<path d="M1918 173 c7 -3 16 -2 19 1 4 3 -2 6 -13 5 -11 0 -14 -3 -6 -6z"/>
<path d="M1953 165 c0 -8 4 -12 9 -9 5 3 6 10 3 15 -9 13 -12 11 -12 -6z"/>
<path d="M1988 173 c6 -2 18 -2 25 0 6 3 1 5 -13 5 -14 0 -19 -2 -12 -5z"/>
<path d="M2220 169 c0 -5 -4 -8 -9 -4 -5 3 -12 1 -15 -4 -4 -5 2 -8 11 -7 15
3 33 26 19 26 -3 0 -6 -5 -6 -11z"/>
<path d="M2252 160 c0 -14 2 -19 5 -12 2 6 2 18 0 25 -3 6 -5 1 -5 -13z"/>
<path d="M2432 166 c7 -8 15 -12 17 -11 5 6 -10 25 -20 25 -5 0 -4 -6 3 -14z"/>
<path d="M2508 173 c6 -2 10 -8 8 -12 -3 -4 1 -8 9 -8 11 0 12 4 4 14 -6 7
-17 13 -23 12 -7 0 -6 -2 2 -6z"/>
<path d="M2548 173 c6 -2 18 -2 25 0 6 3 1 5 -13 5 -14 0 -19 -2 -12 -5z"/>
<path d="M2593 165 c0 -8 4 -12 9 -9 5 3 6 10 3 15 -9 13 -12 11 -12 -6z"/>
<path d="M2628 173 c6 -2 18 -2 25 0 6 3 1 5 -13 5 -14 0 -19 -2 -12 -5z"/>
<path d="M2860 169 c0 -5 -4 -8 -9 -4 -5 3 -12 1 -15 -4 -4 -5 2 -8 11 -7 15
3 33 26 19 26 -3 0 -6 -5 -6 -11z"/>
<path d="M2892 160 c0 -14 2 -19 5 -12 2 6 2 18 0 25 -3 6 -5 1 -5 -13z"/>
<path d="M3072 166 c7 -8 15 -12 17 -11 5 6 -10 25 -20 25 -5 0 -4 -6 3 -14z"/>
<path d="M3148 173 c6 -2 10 -8 8 -12 -3 -4 1 -8 9 -8 11 0 12 4 4 14 -6 7
-17 13 -23 12 -7 0 -6 -2 2 -6z"/>
<path d="M3188 173 c6 -2 9 -10 5 -16 -3 -7 -3 -9 2 -5 4 4 15 2 23 -5 13 -11
14 -9 1 11 -8 12 -21 22 -29 21 -10 0 -11 -2 -2 -6z"/>
<path d="M3353 165 c0 -8 4 -12 9 -9 4 3 8 9 8 15 0 5 -4 9 -8 9 -5 0 -9 -7
-9 -15z"/>
<path d="M365 159 c-11 -16 -1 -19 13 -3 7 8 8 14 3 14 -5 0 -13 -5 -16 -11z"/>
<path d="M426 162 c-3 -5 1 -9 9 -9 8 0 15 4 15 9 0 4 -4 8 -9 8 -6 0 -12 -4
-15 -8z"/>
<path d="M1353 163 c4 -3 1 -13 -6 -22 -11 -14 -10 -14 5 -2 16 12 16 31 1 31
-4 0 -3 -3 0 -7z"/>
<path d="M2313 163 c4 -3 1 -13 -6 -22 -11 -14 -10 -14 5 -2 16 12 16 31 1 31
-4 0 -3 -3 0 -7z"/>
<path d="M2953 163 c4 -3 1 -13 -6 -22 -11 -14 -10 -14 5 -2 16 12 16 31 1 31
-4 0 -3 -3 0 -7z"/>
<path d="M3386 157 c-16 -12 -16 -13 2 -13 10 0 19 6 19 13 0 7 -1 13 -2 13
-1 0 -9 -6 -19 -13z"/>
<path d="M3431 147 c-13 -21 -12 -21 5 -5 10 10 16 20 13 22 -3 3 -11 -5 -18
-17z"/>
<path d="M3546 161 c-3 -4 4 -7 14 -6 27 2 33 10 10 12 -11 1 -22 -2 -24 -6z"/>
<path d="M389 143 c-13 -16 -12 -17 4 -4 9 7 17 15 17 17 0 8 -8 3 -21 -13z"/>
<path d="M3514 149 c-3 -6 -2 -15 3 -20 5 -5 9 -1 9 11 0 23 -2 24 -12 9z"/>
<path d="M210 146 c0 -2 7 -7 16 -10 8 -3 12 -2 9 4 -6 10 -25 14 -25 6z"/>
<path d="M470 141 c0 -6 4 -12 8 -15 5 -3 9 1 9 9 0 8 -4 15 -9 15 -4 0 -8 -4
-8 -9z"/>
<path d="M506 140 c5 -8 9 -18 9 -22 0 -3 3 -9 7 -13 3 -4 5 0 4 9 -1 9 -8 22
-16 29 -10 10 -11 9 -4 -3z"/>
<path d="M700 146 c0 -2 8 -10 18 -17 15 -13 16 -12 3 4 -13 16 -21 21 -21 13z"/>
<path d="M759 133 c-13 -16 -12 -17 4 -4 16 13 21 21 13 21 -2 0 -10 -8 -17
-17z"/>
<path d="M820 146 c0 -2 8 -10 18 -17 15 -13 16 -12 3 4 -13 16 -21 21 -21 13z"/>
<path d="M879 133 c-13 -16 -12 -17 4 -4 9 7 17 15 17 17 0 8 -8 3 -21 -13z"/>
<path d="M1068 136 c4 -6 7 -14 7 -18 0 -19 11 -14 11 6 0 12 -6 23 -13 23 -6
0 -9 -5 -5 -11z"/>
<path d="M1420 145 c0 -2 6 -8 13 -14 10 -8 14 -7 14 2 0 8 -6 14 -14 14 -7 0
-13 -1 -13 -2z"/>
<path d="M1466 140 c5 -8 9 -18 9 -22 0 -3 3 -9 7 -13 3 -4 5 0 4 9 -1 9 -8
22 -16 29 -10 10 -11 9 -4 -3z"/>
<path d="M1660 146 c0 -2 8 -10 18 -17 15 -13 16 -12 3 4 -13 16 -21 21 -21
13z"/>
<path d="M1719 133 c-13 -16 -12 -17 4 -4 16 13 21 21 13 21 -2 0 -10 -8 -17
-17z"/>
<path d="M1780 146 c0 -2 8 -10 18 -17 15 -13 16 -12 3 4 -13 16 -21 21 -21
13z"/>
<path d="M1839 133 c-13 -16 -12 -17 4 -4 16 13 21 21 13 21 -2 0 -10 -8 -17
-17z"/>
<path d="M2028 136 c4 -6 7 -14 7 -18 0 -19 11 -14 11 6 0 12 -6 23 -13 23 -6
0 -9 -5 -5 -11z"/>
<path d="M2380 145 c0 -2 6 -8 13 -14 10 -8 14 -7 14 2 0 8 -6 14 -14 14 -7 0
-13 -1 -13 -2z"/>
<path d="M2426 140 c5 -8 9 -18 9 -22 0 -3 3 -9 7 -13 3 -4 5 0 4 9 -1 9 -8
22 -16 29 -10 10 -11 9 -4 -3z"/>
<path d="M2668 136 c4 -6 7 -14 7 -18 0 -19 11 -14 11 6 0 12 -6 23 -13 23 -6
0 -9 -5 -5 -11z"/>
<path d="M3020 145 c0 -2 6 -8 13 -14 10 -8 14 -7 14 2 0 8 -6 14 -14 14 -7 0
-13 -1 -13 -2z"/>
<path d="M3066 140 c5 -8 9 -18 9 -22 0 -3 3 -9 7 -13 3 -4 5 0 4 9 -1 9 -8
22 -16 29 -10 10 -11 9 -4 -3z"/>
<path d="M3260 146 c0 -2 8 -10 18 -17 15 -13 16 -12 3 4 -13 16 -21 21 -21
13z"/>
<path d="M3319 133 c-13 -16 -12 -17 4 -4 16 13 21 21 13 21 -2 0 -10 -8 -17
-17z"/>
<path d="M3613 135 c0 -8 4 -12 9 -9 5 3 6 10 3 15 -9 13 -12 11 -12 -6z"/>
<path d="M575 129 c-4 -6 -5 -12 -2 -15 2 -3 7 2 10 11 7 17 1 20 -8 4z"/>
<path d="M616 127 c3 -10 9 -15 12 -12 3 3 0 11 -7 18 -10 9 -11 8 -5 -6z"/>
<path d="M1375 129 c-4 -6 -5 -12 -2 -15 2 -3 7 2 10 11 7 17 1 20 -8 4z"/>
<path d="M1535 129 c-4 -6 -5 -12 -2 -15 2 -3 7 2 10 11 7 17 1 20 -8 4z"/>
<path d="M1576 127 c3 -10 9 -15 12 -12 3 3 0 11 -7 18 -10 9 -11 8 -5 -6z"/>
<path d="M2335 129 c-4 -6 -5 -12 -2 -15 2 -3 7 2 10 11 7 17 1 20 -8 4z"/>
<path d="M2495 129 c-4 -6 -5 -12 -2 -15 2 -3 7 2 10 11 7 17 1 20 -8 4z"/>
<path d="M2536 127 c3 -10 9 -15 12 -12 3 3 0 11 -7 18 -10 9 -11 8 -5 -6z"/>
<path d="M2975 129 c-4 -6 -5 -12 -2 -15 2 -3 7 2 10 11 7 17 1 20 -8 4z"/>
<path d="M3135 129 c-4 -6 -5 -12 -2 -15 2 -3 7 2 10 11 7 17 1 20 -8 4z"/>
<path d="M3176 127 c3 -10 9 -15 12 -12 3 3 0 11 -7 18 -10 9 -11 8 -5 -6z"/>
<path d="M3455 129 c-4 -6 -5 -12 -2 -15 2 -3 7 2 10 11 7 17 1 20 -8 4z"/>
<path d="M347 119 c7 -7 15 -10 18 -7 3 3 -2 9 -12 12 -14 6 -15 5 -6 -5z"/>
<path d="M650 120 c0 -5 5 -10 11 -10 5 0 7 5 4 10 -3 6 -8 10 -11 10 -2 0 -4
-4 -4 -10z"/>
<path d="M785 120 c-3 -6 1 -7 9 -4 18 7 21 14 7 14 -6 0 -13 -4 -16 -10z"/>
<path d="M936 122 c-3 -5 1 -9 9 -9 8 0 12 4 9 9 -3 4 -7 8 -9 8 -2 0 -6 -4
-9 -8z"/>
<path d="M1260 126 c0 -2 8 -10 18 -17 15 -13 16 -12 3 4 -13 16 -21 21 -21
13z"/>
<path d="M1307 119 c7 -7 15 -10 18 -7 3 3 -2 9 -12 12 -14 6 -15 5 -6 -5z"/>
<path d="M1610 120 c0 -5 5 -10 11 -10 5 0 7 5 4 10 -3 6 -8 10 -11 10 -2 0
-4 -4 -4 -10z"/>
<path d="M1745 120 c-3 -6 1 -7 9 -4 18 7 21 14 7 14 -6 0 -13 -4 -16 -10z"/>
<path d="M1896 122 c-3 -5 1 -9 9 -9 8 0 12 4 9 9 -3 4 -7 8 -9 8 -2 0 -6 -4
-9 -8z"/>
<path d="M2220 126 c0 -2 8 -10 18 -17 15 -13 16 -12 3 4 -13 16 -21 21 -21
13z"/>
<path d="M2267 119 c7 -7 15 -10 18 -7 3 3 -2 9 -12 12 -14 6 -15 5 -6 -5z"/>
<path d="M2860 126 c0 -2 8 -10 18 -17 15 -13 16 -12 3 4 -13 16 -21 21 -21
13z"/>
<path d="M2907 119 c7 -7 15 -10 18 -7 3 3 -2 9 -12 12 -14 6 -15 5 -6 -5z"/>
<path d="M3210 120 c0 -5 5 -10 11 -10 5 0 7 5 4 10 -3 6 -8 10 -11 10 -2 0
-4 -4 -4 -10z"/>
<path d="M3346 122 c-3 -5 1 -9 9 -9 8 0 12 4 9 9 -3 4 -7 8 -9 8 -2 0 -6 -4
-9 -8z"/>
<path d="M3380 126 c0 -2 8 -10 18 -17 15 -13 16 -12 3 4 -13 16 -21 21 -21
13z"/>
<path d="M853 95 c0 -8 4 -12 9 -9 5 3 6 10 3 15 -9 13 -12 11 -12 -6z"/>
<path d="M1813 95 c0 -8 4 -12 9 -9 5 3 6 10 3 15 -9 13 -12 11 -12 -6z"/>
</g>
</svg>
